<svg width="329" height="42" viewBox="0 0 329 42" fill="none" xmlns="http://www.w3.org/2000/svg">
<path d="M1 21C1 9.95431 9.9543 1 21 1H308C319.046 1 328 9.95431 328 21C328 32.0457 319.046 41 308 41H21C9.9543 41 1 32.0457 1 21Z" fill="white"/>
<path d="M21 1.5H308V0.5H21V1.5ZM308 40.5H21V41.5H308V40.5ZM21 40.5C10.2304 40.5 1.5 31.7696 1.5 21H0.5C0.5 32.3218 9.67815 41.5 21 41.5V40.5ZM327.5 21C327.5 31.7696 318.77 40.5 308 40.5V41.5C319.322 41.5 328.5 32.3218 328.5 21H327.5ZM308 1.5C318.77 1.5 327.5 10.2304 327.5 21H328.5C328.5 9.67816 319.322 0.5 308 0.5V1.5ZM21 0.5C9.67816 0.5 0.5 9.67816 0.5 21H1.5C1.5 10.2304 10.2304 1.5 21 1.5V0.5Z" fill="#D9D9D9"/>
<path d="M24.7727 18.2727C24.7045 17.697 24.428 17.25 23.9432 16.9318C23.4583 16.6136 22.8636 16.4545 22.1591 16.4545C21.6439 16.4545 21.1932 16.5379 20.8068 16.7045C20.4242 16.8712 20.125 17.1004 19.9091 17.392C19.697 17.6837 19.5909 18.0152 19.5909 18.3864C19.5909 18.697 19.6648 18.964 19.8125 19.1875C19.964 19.4072 20.1572 19.5909 20.392 19.7386C20.6269 19.8826 20.8731 20.0019 21.1307 20.0966C21.3883 20.1875 21.625 20.2614 21.8409 20.3182L23.0227 20.6364C23.3258 20.7159 23.6629 20.8258 24.0341 20.9659C24.4091 21.1061 24.767 21.2973 25.108 21.5398C25.4527 21.7784 25.7367 22.0852 25.9602 22.4602C26.1837 22.8352 26.2955 23.2955 26.2955 23.8409C26.2955 24.4697 26.1307 25.0379 25.8011 25.5455C25.4754 26.053 24.9981 26.4564 24.3693 26.7557C23.7443 27.0549 22.9848 27.2045 22.0909 27.2045C21.2576 27.2045 20.536 27.0701 19.9261 26.8011C19.3201 26.5322 18.8428 26.1572 18.4943 25.6761C18.1496 25.1951 17.9545 24.6364 17.9091 24H19.3636C19.4015 24.4394 19.5492 24.803 19.8068 25.0909C20.0682 25.375 20.3977 25.5871 20.7955 25.7273C21.197 25.8636 21.6288 25.9318 22.0909 25.9318C22.6288 25.9318 23.1117 25.8447 23.5398 25.6705C23.9678 25.4924 24.3068 25.2462 24.5568 24.9318C24.8068 24.6136 24.9318 24.2424 24.9318 23.8182C24.9318 23.4318 24.8239 23.1174 24.608 22.875C24.392 22.6326 24.108 22.4356 23.7557 22.2841C23.4034 22.1326 23.0227 22 22.6136 21.8864L21.1818 21.4773C20.2727 21.2159 19.553 20.8428 19.0227 20.358C18.4924 19.8731 18.2273 19.2386 18.2273 18.4545C18.2273 17.803 18.4034 17.2348 18.7557 16.75C19.1117 16.2614 19.589 15.8826 20.1875 15.6136C20.7898 15.3409 21.4621 15.2045 22.2045 15.2045C22.9545 15.2045 23.6212 15.339 24.2045 15.608C24.7879 15.8731 25.25 16.2367 25.5909 16.6989C25.9356 17.161 26.1174 17.6856 26.1364 18.2727H24.7727ZM32.0895 27.1818C31.2486 27.1818 30.5232 26.9962 29.9134 26.625C29.3073 26.25 28.8395 25.7273 28.5099 25.0568C28.1842 24.3826 28.0213 23.5985 28.0213 22.7045C28.0213 21.8106 28.1842 21.0227 28.5099 20.3409C28.8395 19.6553 29.2978 19.1212 29.8849 18.7386C30.4759 18.3523 31.1652 18.1591 31.9531 18.1591C32.4077 18.1591 32.8565 18.2348 33.2997 18.3864C33.7429 18.5379 34.1463 18.7841 34.5099 19.125C34.8736 19.4621 35.1634 19.9091 35.3793 20.4659C35.5952 21.0227 35.7031 21.7083 35.7031 22.5227V23.0909H28.9759V21.9318H34.3395C34.3395 21.4394 34.241 21 34.044 20.6136C33.8509 20.2273 33.5743 19.9223 33.2145 19.6989C32.8584 19.4754 32.438 19.3636 31.9531 19.3636C31.419 19.3636 30.9569 19.4962 30.5668 19.7614C30.1804 20.0227 29.883 20.3636 29.6747 20.7841C29.4664 21.2045 29.3622 21.6553 29.3622 22.1364V22.9091C29.3622 23.5682 29.4759 24.1269 29.7031 24.5852C29.9342 25.0398 30.2543 25.3864 30.6634 25.625C31.0724 25.8598 31.5478 25.9773 32.0895 25.9773C32.4418 25.9773 32.7599 25.928 33.044 25.8295C33.3319 25.7273 33.58 25.5758 33.7884 25.375C33.9967 25.1705 34.1577 24.9167 34.2713 24.6136L35.5668 24.9773C35.4304 25.4167 35.2012 25.803 34.8793 26.1364C34.5573 26.4659 34.1596 26.7235 33.6861 26.9091C33.2126 27.0909 32.6804 27.1818 32.0895 27.1818ZM40.3111 27.2045C39.758 27.2045 39.2562 27.1004 38.8054 26.892C38.3546 26.6799 37.9967 26.375 37.7315 25.9773C37.4664 25.5758 37.3338 25.0909 37.3338 24.5227C37.3338 24.0227 37.4323 23.6174 37.6293 23.3068C37.8262 22.9924 38.0895 22.7462 38.419 22.5682C38.7486 22.3902 39.1122 22.2576 39.5099 22.1705C39.9115 22.0795 40.3149 22.0076 40.7202 21.9545C41.2505 21.8864 41.6804 21.8352 42.0099 21.8011C42.3433 21.7633 42.5857 21.7008 42.7372 21.6136C42.8925 21.5265 42.9702 21.375 42.9702 21.1591V21.1136C42.9702 20.553 42.8168 20.1174 42.5099 19.8068C42.2069 19.4962 41.7467 19.3409 41.1293 19.3409C40.4891 19.3409 39.9872 19.4811 39.6236 19.7614C39.2599 20.0417 39.0043 20.3409 38.8565 20.6591L37.5838 20.2045C37.8111 19.6742 38.1141 19.2614 38.4929 18.9659C38.8755 18.6667 39.2921 18.4583 39.7429 18.3409C40.1974 18.2197 40.6444 18.1591 41.0838 18.1591C41.3641 18.1591 41.6861 18.1932 42.0497 18.2614C42.4171 18.3258 42.7713 18.4602 43.1122 18.6648C43.4569 18.8693 43.7429 19.178 43.9702 19.5909C44.1974 20.0038 44.3111 20.5568 44.3111 21.25V27H42.9702V25.8182H42.902C42.8111 26.0076 42.6596 26.2102 42.4474 26.4261C42.2353 26.642 41.9531 26.8258 41.6009 26.9773C41.2486 27.1288 40.8187 27.2045 40.3111 27.2045ZM40.5156 26C41.0459 26 41.4929 25.8958 41.8565 25.6875C42.224 25.4792 42.5005 25.2102 42.6861 24.8807C42.8755 24.5511 42.9702 24.2045 42.9702 23.8409V22.6136C42.9134 22.6818 42.7884 22.7443 42.5952 22.8011C42.4058 22.8542 42.1861 22.9015 41.9361 22.9432C41.6899 22.9811 41.4493 23.0152 41.2145 23.0455C40.9834 23.072 40.7959 23.0947 40.652 23.1136C40.3035 23.1591 39.9777 23.233 39.6747 23.3352C39.3755 23.4337 39.133 23.5833 38.9474 23.7841C38.7656 23.9811 38.6747 24.25 38.6747 24.5909C38.6747 25.0568 38.8471 25.4091 39.1918 25.6477C39.5402 25.8826 39.9815 26 40.5156 26ZM46.7585 27V18.2727H48.054V19.5909H48.1449C48.304 19.1591 48.5919 18.8087 49.0085 18.5398C49.4252 18.2708 49.8949 18.1364 50.4176 18.1364C50.5161 18.1364 50.6392 18.1383 50.7869 18.142C50.9347 18.1458 51.0464 18.1515 51.1222 18.1591V19.5227C51.0767 19.5114 50.9725 19.4943 50.8097 19.4716C50.6506 19.4451 50.482 19.4318 50.304 19.4318C49.8797 19.4318 49.5009 19.5208 49.1676 19.6989C48.8381 19.8731 48.5767 20.1155 48.3835 20.4261C48.1941 20.733 48.0994 21.0833 48.0994 21.4773V27H46.7585ZM55.9915 27.1818C55.1733 27.1818 54.4688 26.9886 53.8778 26.6023C53.2869 26.2159 52.8324 25.6837 52.5142 25.0057C52.196 24.3277 52.0369 23.553 52.0369 22.6818C52.0369 21.7955 52.1998 21.0133 52.5256 20.3352C52.8551 19.6534 53.3134 19.1212 53.9006 18.7386C54.4915 18.3523 55.1809 18.1591 55.9688 18.1591C56.5824 18.1591 57.1354 18.2727 57.6278 18.5C58.1203 18.7273 58.5237 19.0455 58.8381 19.4545C59.1525 19.8636 59.3475 20.3409 59.4233 20.8864H58.0824C57.9801 20.4886 57.7528 20.1364 57.4006 19.8295C57.0521 19.5189 56.5824 19.3636 55.9915 19.3636C55.4688 19.3636 55.0104 19.5 54.6165 19.7727C54.2263 20.0417 53.9214 20.4223 53.7017 20.9148C53.4858 21.4034 53.3778 21.9773 53.3778 22.6364C53.3778 23.3106 53.4839 23.8977 53.696 24.3977C53.9119 24.8977 54.215 25.286 54.6051 25.5625C54.9991 25.839 55.4612 25.9773 55.9915 25.9773C56.34 25.9773 56.6562 25.9167 56.9403 25.7955C57.2244 25.6742 57.465 25.5 57.6619 25.2727C57.8589 25.0455 57.9991 24.7727 58.0824 24.4545H59.4233C59.3475 24.9697 59.16 25.4337 58.8608 25.8466C58.5653 26.2557 58.1733 26.5814 57.6847 26.8239C57.1998 27.0625 56.6354 27.1818 55.9915 27.1818ZM62.7244 21.75V27H61.3835V15.3636H62.7244V19.6364H62.8381C63.0426 19.1856 63.3494 18.8277 63.7585 18.5625C64.1714 18.2936 64.7206 18.1591 65.4062 18.1591C66.0009 18.1591 66.5218 18.2784 66.9688 18.517C67.4157 18.7519 67.7623 19.1136 68.0085 19.6023C68.2585 20.0871 68.3835 20.7045 68.3835 21.4545V27H67.0426V21.5455C67.0426 20.8523 66.8627 20.3163 66.5028 19.9375C66.1468 19.5549 65.6525 19.3636 65.0199 19.3636C64.5805 19.3636 64.1866 19.4564 63.8381 19.642C63.4934 19.8277 63.2206 20.0985 63.0199 20.4545C62.8229 20.8106 62.7244 21.2424 62.7244 21.75Z" fill="#B3B3B3"/>
<path d="M310 27L307.1 24.1M308.667 20.3333C308.667 23.2789 306.279 25.6667 303.333 25.6667C300.388 25.6667 298 23.2789 298 20.3333C298 17.3878 300.388 15 303.333 15C306.279 15 308.667 17.3878 308.667 20.3333Z" stroke="#1E1E1E" stroke-width="1.6" stroke-linecap="round" stroke-linejoin="round"/>
</svg>
